/* XPM */
static char * oxim_typing1_xpm[] = {
"20 16 97 2",
"  	c None",
". 	c #FFFFFF",
"+ 	c #EDEAFB",
"@ 	c #CBB6ED",
"# 	c #C1BDC5",
"$ 	c #EAF1F4",
"% 	c #FCFCFE",
"& 	c #B775D1",
"* 	c #E1D6F2",
"= 	c #F8F6FC",
"- 	c #F3EFF9",
"; 	c #BCC7C1",
"> 	c #F8FBFC",
", 	c #BDA3F1",
"' 	c #BD9FEB",
") 	c #BE9DE5",
"! 	c #C2A3E2",
"~ 	c #C39EDB",
"{ 	c #BD8ACD",
"] 	c #EB357C",
"^ 	c #D0B3DC",
"/ 	c #F3F6FB",
"( 	c #BCD3AE",
"_ 	c #8ED5CA",
": 	c #FBFDFE",
"< 	c #B6D5ED",
"[ 	c #6A96D5",
"} 	c #8EA2E6",
"| 	c #E8E4FC",
"1 	c #B973E1",
"2 	c #F3F0FC",
"3 	c #F2EEFA",
"4 	c #C5A5E0",
"5 	c #BB83CB",
"6 	c #CDB0DE",
"7 	c #D2B8E0",
"8 	c #D4DAF0",
"9 	c #BCCCCD",
"0 	c #9BD5B2",
"a 	c #F6FBFC",
"b 	c #71D6D7",
"c 	c #56A9CC",
"d 	c #206CA7",
"e 	c #AEC3ED",
"f 	c #D0D6F8",
"g 	c #EDEAFC",
"h 	c #CFC0F2",
"i 	c #D0BFEF",
"j 	c #BA86D5",
"k 	c #D6C5EB",
"l 	c #C057AA",
"m 	c #E8DEF2",
"n 	c #7CD5B9",
"o 	c #ACE6E8",
"p 	c #3268B7",
"q 	c #B971C0",
"r 	c #F7F5FB",
"s 	c #E0D2EC",
"t 	c #CCA9D5",
"u 	c #D7BFDF",
"v 	c #CFDDE5",
"w 	c #95D3B9",
"x 	c #54DBAE",
"y 	c #5070C8",
"z 	c #C0A5EC",
"A 	c #B87CD7",
"B 	c #BA87D6",
"C 	c #BB8BD2",
"D 	c #CA499D",
"E 	c #BC7EC1",
"F 	c #BF89C4",
"G 	c #BF82BD",
"H 	c #BC77B2",
"I 	c #B0D2B7",
"J 	c #F0F8FA",
"K 	c #3FD8BB",
"L 	c #6A72D4",
"M 	c #F9F8FD",
"N 	c #F6F4FC",
"O 	c #BA6AB6",
"P 	c #E9DFF1",
"Q 	c #B5E6E8",
"R 	c #1CCAA9",
"S 	c #8574E2",
"T 	c #BB61AC",
"U 	c #E7DBEF",
"V 	c #D3F1F4",
"W 	c #24A0AF",
"X 	c #FDFDFE",
"Y 	c #7C87DF",
"Z 	c #A675EF",
"` 	c #BB6CB7",
" .	c #E43378",
"..	c #FBFAFD",
"+.	c #F5F6FD",
"@.	c #CFC6FD",
"#.	c #FCFCFD",
". . . . . . . . . . . . . . . . . . . . ",
". . . . . . . . . . . . . . + @ . . . . ",
". . # $ . . . . . . . . . . % & * = - . ",
". . ; > . . . . . . . . , ' ) ! ~ { ] ^ ",
". / ( _ . : < [ } . . | 1 2 3 4 5 6 7 . ",
"8 9 0 a b c d e f . . g h i j k l m . . ",
". . n o . . p . . . . . . . . q r s t u ",
"v w x . . . y . . . . z A B C D E F G H ",
"I J K . . . L . . . . M N . . O P . . . ",
". Q R . . . S . . . . . . . . T U . . . ",
". V W . X Y Z . . . . . . % `  .... . . ",
". . . . . +.@.. . . . . . . #.^ . . . . ",
". . . . . . . . . . . . . . . . . . . . ",
". . . . . . . . . . . . . . . . . . . . ",
". . . . . . . . . . . . . . . . . . . . ",
". . . . . . . . . . . . . . . . . . . . "};
