/* XPM */
static char * oxim_ortho_xpm[] = {
"20 16 3 1",
" 	c None",
".	c #FF0000",
"+	c #FFFFFF",
"       ......       ",
"     ..++++++..     ",
"    ..++++++++..    ",
"   ...........+..   ",
"   .+++++.++++++.   ",
"  .++++++.+++++++.  ",
"  .+++..+.+++++++.  ",
"  .+++.++.++.++++.  ",
"  .+++.++.....+++.  ",
"  .+++.++.+++++++.  ",
"  .+++.++.+++++++.  ",
"   .++.++.+++.++.   ",
"   ..............   ",
"    ..++++++++..    ",
"     ..++++++..     ",
"       ......       "};
