/* XPM */
static char * oxim_ttp_xpm[] = {
"20 16 3 1",
" 	c None",
".	c #FFFFFF",
"+	c #000000",
"....................",
"...++++.....+++++...",
"...++++.....+++++...",
"...+++........+++...",
"...+++..+++...+++...",
"...+++..+++...+++...",
"...+++..+++...+++...",
"...+++........+++...",
"...+++........+++...",
"...+++..+++...+++...",
"...+++..+++...+++...",
"...+++..+++...+++...",
"...+++........+++...",
"...++++.....+++++...",
"...++++.....+++++...",
"...................."};
