/* XPM */
static char * oxim_unicode_xpm[] = {
"20 16 4 1",
" 	c None",
".	c #FFFFFF",
"+	c #E1240B",
"@	c #0B0BE1",
"....................",
"....................",
"++++++++++++++++++++",
"....................",
".@....@..@@...@..@..",
".@....@..@@...@.....",
".@....@..@.@..@..@..",
".@....@..@.@..@..@..",
".@....@..@..@.@..@..",
".@....@..@..@.@..@..",
".@....@..@...@@..@..",
"..@@@@...@...@@..@..",
"....................",
"....................",
"++++++++++++++++++++",
"...................."};

