/* XPM */
static char * oxim_paste_xpm[] = {
"20 16 3 1",
" 	c None",
".	c #FFFFFF",
"+	c #000000",
"....................",
"....................",
".....++++...+.......",
".....+..+...+.......",
".....+..+...+.......",
".....++++...+++.....",
".....+..+...+.......",
".....++++...+.......",
".....+..+.+++++.....",
".....+..+.+...+.....",
".....++++.+...+.....",
".....+.+..+...+.....",
".....+..+.+++++.....",
"....+.....+...+.....",
"....................",
"...................."};
