/* XPM */
static char * oxim_compose_xpm[] = {
"20 16 4 1",
" 	c None",
".	c #FFFFFF",
"+	c #FF0000",
"@	c #0000FF",
"....................",
"......+.............",
"......+....@@@@@@...",
".....++.+..@....@...",
".....+..+..@....@...",
"....+..+...@....@...",
"....++++...@@@@@@...",
"......+.+..@....@...",
".....+..++.@....@...",
"....++++++.@....@...",
"....++...+.@@@@@@...",
"....+...+..@....@...",
"....++++.+.@....@...",
"....+..+.+.@....@...",
"....+..+.+@@@@@@@@..",
"...................."};
