/* XPM */
static char * SPEAK_2009_5_5_20x16_xpm[] = {
"20 16 157 2",
"  	c None",
". 	c #FFFFFF",
"+ 	c #FFFDFD",
"@ 	c #FFF4F4",
"# 	c #FFD8D8",
"$ 	c #FFD3D3",
"% 	c #FFE8E8",
"& 	c #FFE6E6",
"* 	c #FFD0D0",
"= 	c #FFD6D6",
"- 	c #FFFEFE",
"; 	c #FFFAFA",
"> 	c #FFD2D2",
", 	c #FF5050",
"' 	c #FF3131",
") 	c #FF7E7E",
"! 	c #FFDFDF",
"~ 	c #FFE7E7",
"{ 	c #FF8888",
"] 	c #FF3838",
"^ 	c #FF5555",
"/ 	c #FFD4D4",
"( 	c #FFFBFB",
"_ 	c #FFF3F3",
": 	c #FFB1B1",
"< 	c #FF2B2B",
"[ 	c #FF0000",
"} 	c #FF1313",
"| 	c #FF6161",
"1 	c #FFC7C7",
"2 	c #FFCDCD",
"3 	c #FF8686",
"4 	c #FF4C4C",
"5 	c #FF3B3B",
"6 	c #FF5B5B",
"7 	c #FFBDBD",
"8 	c #FFE9E9",
"9 	c #FF9E9E",
"0 	c #FF2E2E",
"a 	c #FF0404",
"b 	c #FF0A0A",
"c 	c #FF2020",
"d 	c #FF1010",
"e 	c #FF2424",
"f 	c #FF4242",
"g 	c #FF4747",
"h 	c #FF3C3C",
"i 	c #FF9D9D",
"j 	c #FF8080",
"k 	c #FF0101",
"l 	c #FF1818",
"m 	c #FF2525",
"n 	c #FF2323",
"o 	c #FF2828",
"p 	c #FF0B0B",
"q 	c #FF2121",
"r 	c #FF7F7F",
"s 	c #FFB9B9",
"t 	c #FF5D5D",
"u 	c #FF1414",
"v 	c #FFDADB",
"w 	c #FFD6D7",
"x 	c #FFD3D4",
"y 	c #FF3D3D",
"z 	c #FF5E5E",
"A 	c #FFBBBB",
"B 	c #FF2C2C",
"C 	c #FF0C0C",
"D 	c #FF6363",
"E 	c #FFC8C8",
"F 	c #FFE0E1",
"G 	c #FFF6F6",
"H 	c #FFFAF4",
"I 	c #FFF4E9",
"J 	c #FFF2E6",
"K 	c #FFF5F5",
"L 	c #FFDEDF",
"M 	c #FF2F2F",
"N 	c #FF7575",
"O 	c #FF5353",
"P 	c #FFCACA",
"Q 	c #FFFFFD",
"R 	c #FFF9F1",
"S 	c #FFE5CE",
"T 	c #FFC796",
"U 	c #FFB26E",
"V 	c #FFB16D",
"W 	c #FFB573",
"X 	c #FFD2AA",
"Y 	c #FFF3E9",
"Z 	c #FF7777",
"` 	c #FFB7B7",
" .	c #FF3B3A",
"..	c #FF1315",
"+.	c #FF5B5C",
"@.	c #FFC0B4",
"#.	c #FFB77F",
"$.	c #FFAC60",
"%.	c #FFA554",
"&.	c #FFA352",
"*.	c #FFA251",
"=.	c #FFA350",
"-.	c #FFC190",
";.	c #FFD6D0",
">.	c #FFC7C8",
",.	c #FF595A",
"'.	c #FF1111",
").	c #FFB8B8",
"!.	c #FF8A8A",
"~.	c #FF1E1C",
"{.	c #FF3823",
"].	c #FF7D41",
"^.	c #FFA755",
"/.	c #FFA455",
"(.	c #FFA855",
"_.	c #FFA151",
":.	c #FF7842",
"<.	c #FF3128",
"[.	c #FF1E1E",
"}.	c #FF0D0E",
"|.	c #FFF8F8",
"1.	c #FF9999",
"2.	c #FF1F22",
"3.	c #FF3629",
"4.	c #FF6B3B",
"5.	c #FF994E",
"6.	c #FF9D50",
"7.	c #FF9D51",
"8.	c #FF9A4F",
"9.	c #FF6433",
"0.	c #FF1F0F",
"a.	c #FF4949",
"b.	c #FFBFBF",
"c.	c #FFF0F0",
"d.	c #FFA5A5",
"e.	c #FF1212",
"f.	c #FF2526",
"g.	c #FF2D28",
"h.	c #FF2619",
"i.	c #FF1E0F",
"j.	c #FF1F10",
"k.	c #FF1C0D",
"l.	c #FF0C05",
"m.	c #FFA6A6",
"n.	c #FFF1F1",
"o.	c #FFB6B6",
"p.	c #FF4141",
"q.	c #FF1515",
"r.	c #FF1D1E",
"s.	c #FF2224",
"t.	c #FF0708",
"u.	c #FF0909",
"v.	c #FF5F5F",
"w.	c #FFDDDD",
"x.	c #FF2D2D",
"y.	c #FF2222",
"z.	c #FFCECE",
". . . + @ # $ % + . . + & * = @ - . . . ",
". . . ; > , ' ) ! . . ~ { ] ^ / ( . . . ",
". . . _ : < [ } | 1 2 3 4 5 6 7 _ . . . ",
". . 8 9 0 a [ [ b c c d e f g h i ~ . . ",
". ! j c [ k l e m n n n o ' ' p q r ! . ",
"s t u a q ] i / v w w v x 9 y n a u z A ",
"B C l D E F G H I J J I H K L E D l C M ",
"N c O P Q R S T U U V W X Y . . P O c Z ",
"`  ...+.@.#.$.%.&.&.*.=.$.-.;.>.,.'.5 ).",
"- !.q [ ~.{.].&.^././.(._.:.<.[.}.t 2 . ",
". |.1.o k 2.3.4.5.6.7.8.9.0.[ [ a.b.. . ",
". . c.d.M e.f.g.h.i.j.k.l.[ a M m.c.. . ",
". . . n.o.p.q.r.s.t.[ [ [ u.p.` n.. . . ",
". . . . ( * z l a [ [ [ u v.* ( . . . . ",
". . . . . . w.r x.y.y.x.r w.. . . . . . ",
". . . . . . + 8 $ z.z.$ 8 + . . . . . . "};
