/* XPM */
static char * oxim_translate_xpm[] = {
"20 16 3 1",
" 	c #1200FF",
".	c #FFFFFF",
"+	c #FF0000",
" . . . +++++++++++++",
"  ...  +++++++++++++",
" .. .. +++++++++++++",
"  ...  +++++++++++++",
" . . . +++++++++++++",
"++++++++++++++++++++",
"++++++++++++++++++++",
"++++++++++++++++++++",
". . . ..............",
" . . . +++++++++++++",
". . . ..............",
" . . . +++++++++++++",
"....................",
"++++++++++++++++++++",
"....................",
"++++++++++++++++++++"};

