/* XPM */
static char * oxim_relate_xpm[] = {
"20 16 5 1",
" 	c #FFFFFF",
".	c #CF2020",
"+	c #FEF9F9",
"@	c #FEFEFE",
"#	c #FCF2F2",
"                    ",
" .                  ",
" ..      .........  ",
"  ..             .  ",
" ......   ...... .  ",
"                 .  ",
" ......   ...... .  ",
"  +       .    . .  ",
" ......   .    . .  ",
"          .    . .  ",
" ......   .    . .  ",
" .    .   ...... .  ",
" .    .      @#  .  ",
" .    .      .....  ",
" ......         ..  ",
"                    "};
