/* XPM */
static char * oxim_tray[] = {
"20 16 98 2",
"  	c None",
". 	c #EAF6FF",
"+ 	c #E2F1FF",
"@ 	c #E3F1FF",
"# 	c #DEEFFF",
"$ 	c #DFEFFF",
"% 	c #DDEFFF",
"& 	c #6AB4FF",
"* 	c #3099FF",
"= 	c #359AFF",
"- 	c #339AFF",
"; 	c #58ADFF",
"> 	c #A9D5FF",
", 	c #8EC5FF",
"' 	c #9ACBFF",
") 	c #D8ECFF",
"! 	c #62B2FF",
"~ 	c #158BFF",
"{ 	c #1B8EFF",
"] 	c #1B8DFF",
"^ 	c #188DFF",
"/ 	c #1A8DFF",
"( 	c #0683FF",
"_ 	c #D8EBFF",
": 	c #86C2FF",
"< 	c #57ACFF",
"[ 	c #5AADFF",
"} 	c #5AAEFF",
"| 	c #7DBFFF",
"1 	c #90C8FF",
"2 	c #9DCDFF",
"3 	c #ABD5FF",
"4 	c #E1F0FF",
"5 	c #5BAEFF",
"6 	c #128AFF",
"7 	c #178CFF",
"8 	c #148BFF",
"9 	c #3A9DFF",
"0 	c #50A7FF",
"a 	c #5BADFF",
"b 	c #62B0FF",
"c 	c #DCEDFF",
"d 	c #B6DBFF",
"e 	c #99CDFF",
"f 	c #9BCEFF",
"g 	c #A1D1FF",
"h 	c #9FD1FF",
"i 	c #A2D2FF",
"j 	c #D3EAFF",
"k 	c #6DB7FF",
"l 	c #389CFF",
"m 	c #399DFF",
"n 	c #ABD3FF",
"o 	c #7CBFFF",
"p 	c #B0D5FF",
"q 	c #C5E1FF",
"r 	c #E0F1FF",
"s 	c #D5EBFF",
"t 	c #D6ECFF",
"u 	c #D6EBFF",
"v 	c #EBF5FF",
"w 	c #FFE0DF",
"x 	c #FFD5D4",
"y 	c #FFD6D5",
"z 	c #FFD6D4",
"A 	c #FFD2D1",
"B 	c #FFD1D0",
"C 	c #FFD0CF",
"D 	c #FFDCDB",
"E 	c #FF6969",
"F 	c #FF2F30",
"G 	c #FF3434",
"H 	c #FF3636",
"I 	c #FF7A7D",
"J 	c #FF9791",
"K 	c #FFA0A1",
"L 	c #FFAAAA",
"M 	c #FF7473",
"N 	c #FF3232",
"O 	c #FF3736",
"P 	c #FF312F",
"Q 	c #FF2E2E",
"R 	c #FF6B6B",
"S 	c #7CBEFF",
"T 	c #4AA5FF",
"U 	c #4DA6FF",
"V 	c #80C3FF",
"W 	c #A0CDFF",
"X 	c #86C4FF",
"Y 	c #9BCAFF",
"Z 	c #65B3FF",
"` 	c #1F90FF",
" .	c #2392FF",
"..	c #2290FF",
"+.	c #41A3FF",
"@.	c #54A8FF",
"#.	c #41A1FF",
"$.	c #47A2FF",
". + @ @ + # $ %                         ",
"& * = - ; > , ' )                       ",
"! ~ { { ] ^ / ( _                       ",
"                                        ",
": < [ [ [ [ } < | 1 2 3 4               ",
"5 6 7 7 7 7 7 8 9 0 a b c               ",
"                                        ",
"d e f f f f f f f f f f g h i j         ",
"k - l l l l l l l l l m n o p q         ",
"r s t t u t u u t u u t j s j v         ",
"w x y y y y z z y y y y z y x A B C D   ",
"E F G G G G G G G G G G G G H I J K L   ",
"M N O O O O O O O O O O O O H N P Q R   ",
"                                        ",
"S T U U U U U U U U U U U U U T V W X Y ",
"Z `  . . . . . . . . . . . . ...+.@.#.$."};
